<svg width="45" height="29" viewBox="0 0 45 29" fill="none" xmlns="http://www.w3.org/2000/svg">
<g id="Mastercard">
<path id="Left" fill-rule="evenodd" clip-rule="evenodd" d="M22.5 24.8139C20.1169 26.8704 17.0255 28.1119 13.6475 28.1119C6.11021 28.1119 0 21.9308 0 14.306C0 6.68114 6.11021 0.5 13.6475 0.5C17.0255 0.5 20.1169 1.7415 22.5 3.79806C24.8831 1.7415 27.9745 0.5 31.3525 0.5C38.8898 0.5 45 6.68114 45 14.306C45 21.9308 38.8898 28.1119 31.3525 28.1119C27.9745 28.1119 24.8831 26.8704 22.5 24.8139Z" fill="#ED0006"/>
<path id="Right" fill-rule="evenodd" clip-rule="evenodd" d="M22.5 24.8139C25.4344 22.2816 27.2951 18.5136 27.2951 14.306C27.2951 10.0983 25.4344 6.33033 22.5 3.79806C24.8831 1.7415 27.9745 0.5 31.3525 0.5C38.8898 0.5 45 6.68114 45 14.306C45 21.9308 38.8898 28.1119 31.3525 28.1119C27.9745 28.1119 24.8831 26.8704 22.5 24.8139Z" fill="#F9A000"/>
<path id="Middle" fill-rule="evenodd" clip-rule="evenodd" d="M22.5001 3.79785C25.4345 6.33012 27.2951 10.0981 27.2951 14.3057C27.2951 18.5133 25.4345 22.2813 22.5001 24.8136C19.5657 22.2813 17.7051 18.5133 17.7051 14.3057C17.7051 10.0981 19.5657 6.33012 22.5001 3.79785Z" fill="#FF5E00"/>
</g>
</svg>
