<svg width="22" height="25" viewBox="0 0 22 25" fill="none" xmlns="http://www.w3.org/2000/svg">
<g id="PayPal">
<path id="Vector" d="M6.47122 24.0382L6.90027 21.3132L5.94464 21.291H1.38135L4.55263 1.18273C4.56231 1.12202 4.59442 1.06542 4.64118 1.02523C4.68793 0.98504 4.74791 0.962891 4.81025 0.962891H12.5047C15.0592 0.962891 16.8219 1.49445 17.7424 2.54362C18.1738 3.03582 18.4486 3.55014 18.5816 4.11615C18.7209 4.71008 18.7235 5.41964 18.5873 6.28507L18.5773 6.34824V6.90275L19.009 7.14722C19.3724 7.33998 19.661 7.56064 19.8825 7.81331C20.2518 8.23412 20.4905 8.76896 20.5913 9.40306C20.6955 10.0552 20.661 10.8312 20.4905 11.7098C20.2936 12.7204 19.9753 13.6006 19.5455 14.3208C19.15 14.9845 18.6463 15.5348 18.0484 15.9615C17.4774 16.3667 16.799 16.6744 16.032 16.8713C15.2887 17.0647 14.4415 17.1624 13.512 17.1624H12.9132C12.4851 17.1624 12.069 17.3166 11.7427 17.5932C11.4154 17.8753 11.1986 18.2607 11.1323 18.6824L11.0872 18.9278L10.3292 23.7305L10.2947 23.9069C10.2857 23.9629 10.2701 23.9907 10.2472 24.0096C10.2267 24.0266 10.1972 24.0382 10.1684 24.0382H6.47122Z" fill="#253B80"/>
<path id="Vector_2" d="M19.4156 6.41309C19.3927 6.55991 19.3665 6.71002 19.337 6.86424C18.3221 12.074 14.8507 13.8738 10.4168 13.8738H8.15935C7.61718 13.8738 7.16026 14.2675 7.07573 14.8024L5.91985 22.1328L5.59257 24.2105C5.53755 24.5616 5.8084 24.8783 6.1626 24.8783H10.1667C10.6409 24.8783 11.0435 24.5338 11.1181 24.0662L11.1575 23.8627L11.9115 19.0786L11.9599 18.8163C12.0336 18.3471 12.4372 18.0025 12.9113 18.0025H13.5101C17.3894 18.0025 20.4263 16.4275 21.3139 11.8698C21.6846 9.96584 21.4927 8.37609 20.5115 7.258C20.2147 6.92085 19.8463 6.64112 19.4156 6.41309Z" fill="#179BD7"/>
<path id="Vector_3" d="M18.3522 5.98824C18.1973 5.94311 18.0372 5.90209 17.8731 5.86519C17.7083 5.82911 17.5392 5.79711 17.3654 5.76922C16.7566 5.67078 16.0898 5.62402 15.3753 5.62402H9.34439C9.19587 5.62402 9.05489 5.65765 8.92856 5.71836C8.6504 5.85206 8.44378 6.1154 8.39372 6.43777L7.11057 14.5638L7.07373 14.8008C7.15827 14.266 7.61519 13.8722 8.15735 13.8722H10.4148C14.8487 13.8722 18.3203 12.0717 19.335 6.86269C19.3652 6.70847 19.3907 6.55836 19.4136 6.41153C19.1569 6.27535 18.8788 6.15887 18.5794 6.0596C18.5057 6.03499 18.4294 6.01121 18.3522 5.98824Z" fill="#222D65"/>
<path id="Vector_4" d="M8.39711 6.43862C8.44717 6.11623 8.65402 5.85291 8.93195 5.72002C9.05923 5.65931 9.19949 5.62568 9.34778 5.62568H15.3789C16.0934 5.62568 16.7603 5.67243 17.3688 5.77088C17.5428 5.79877 17.7119 5.83076 17.8767 5.86684C18.0408 5.90378 18.2007 5.94479 18.3558 5.98989C18.4328 6.01287 18.5091 6.03665 18.5837 6.06045C18.8831 6.1597 19.1613 6.27701 19.418 6.41236C19.72 4.48709 19.4156 3.17624 18.3747 1.98924C17.2271 0.682496 15.1557 0.123047 12.5054 0.123047H4.8107C4.26925 0.123047 3.8076 0.516777 3.72378 1.05245L0.518966 21.3674C0.455682 21.7693 0.765726 22.132 1.17093 22.132H5.92148L7.11419 14.5646L8.39711 6.43862Z" fill="#253B80"/>
</g>
</svg>
