<svg width="15" height="16" viewBox="0 0 15 16" fill="none" xmlns="http://www.w3.org/2000/svg">
<g id="bi:instagram" clip-path="url(#clip0_736_4318)">
<path id="Vector" d="M7.5 0.5C5.46469 0.5 5.20875 0.509375 4.40906 0.545C3.60938 0.5825 3.06469 0.708125 2.5875 0.89375C2.08696 1.08202 1.63359 1.37734 1.25906 1.75906C0.877571 2.13378 0.582288 2.5871 0.39375 3.0875C0.208125 3.56375 0.0815625 4.10937 0.045 4.90625C0.009375 5.70781 0 5.96281 0 8.00094C0 10.0372 0.009375 10.2922 0.045 11.0919C0.0825 11.8906 0.208125 12.4353 0.39375 12.9125C0.585938 13.4056 0.841875 13.8237 1.25906 14.2409C1.67531 14.6581 2.09344 14.915 2.58656 15.1062C3.06469 15.2919 3.60844 15.4184 4.40719 15.455C5.20781 15.4906 5.46281 15.5 7.5 15.5C9.53719 15.5 9.79125 15.4906 10.5919 15.455C11.3897 15.4175 11.9362 15.2919 12.4134 15.1062C12.9137 14.9179 13.3667 14.6226 13.7409 14.2409C14.1581 13.8237 14.4141 13.4056 14.6062 12.9125C14.7909 12.4353 14.9175 11.8906 14.955 11.0919C14.9906 10.2922 15 10.0372 15 8C15 5.96281 14.9906 5.70781 14.955 4.90719C14.9175 4.10938 14.7909 3.56375 14.6062 3.0875C14.4177 2.58709 14.1225 2.13376 13.7409 1.75906C13.3665 1.3772 12.9131 1.08186 12.4125 0.89375C11.9344 0.708125 11.3888 0.581563 10.5909 0.545C9.79031 0.509375 9.53625 0.5 7.49813 0.5H7.50094H7.5ZM6.82781 1.85188H7.50094C9.50344 1.85188 9.74062 1.85844 10.5309 1.895C11.2622 1.92781 11.6597 2.05062 11.9241 2.15281C12.2738 2.28875 12.5241 2.45187 12.7866 2.71438C13.0491 2.97688 13.2113 3.22625 13.3472 3.57687C13.4503 3.84031 13.5722 4.23781 13.605 4.96906C13.6416 5.75938 13.6491 5.99656 13.6491 7.99813C13.6491 9.99969 13.6416 10.2378 13.605 11.0281C13.5722 11.7594 13.4494 12.1559 13.3472 12.4203C13.2269 12.746 13.035 13.0404 12.7856 13.2819C12.5231 13.5444 12.2738 13.7066 11.9231 13.8425C11.6606 13.9456 11.2631 14.0675 10.5309 14.1013C9.74062 14.1369 9.50344 14.1453 7.50094 14.1453C5.49844 14.1453 5.26031 14.1369 4.47 14.1013C3.73875 14.0675 3.34219 13.9456 3.07781 13.8425C2.75203 13.7224 2.45731 13.5309 2.21531 13.2819C1.9657 13.04 1.77349 12.7453 1.65281 12.4194C1.55062 12.1559 1.42781 11.7584 1.395 11.0272C1.35938 10.2369 1.35188 9.99969 1.35188 7.99625C1.35188 5.99375 1.35938 5.7575 1.395 4.96719C1.42875 4.23594 1.55063 3.83844 1.65375 3.57406C1.78969 3.22438 1.95281 2.97406 2.21531 2.71156C2.47781 2.44906 2.72719 2.28688 3.07781 2.15094C3.34219 2.04781 3.73875 1.92594 4.47 1.89219C5.16188 1.86031 5.43 1.85094 6.82781 1.85V1.85188ZM11.5041 3.09687C11.3859 3.09687 11.2688 3.12015 11.1596 3.16538C11.0505 3.21061 10.9512 3.27691 10.8677 3.36048C10.7841 3.44405 10.7178 3.54327 10.6726 3.65246C10.6273 3.76165 10.6041 3.87869 10.6041 3.99688C10.6041 4.11506 10.6273 4.2321 10.6726 4.34129C10.7178 4.45048 10.7841 4.5497 10.8677 4.63327C10.9512 4.71684 11.0505 4.78314 11.1596 4.82837C11.2688 4.8736 11.3859 4.89687 11.5041 4.89687C11.7428 4.89687 11.9717 4.80205 12.1405 4.63327C12.3092 4.46449 12.4041 4.23557 12.4041 3.99688C12.4041 3.75818 12.3092 3.52926 12.1405 3.36048C11.9717 3.1917 11.7428 3.09687 11.5041 3.09687ZM7.50094 4.14875C6.99007 4.14078 6.48271 4.23452 6.00842 4.42451C5.53412 4.6145 5.10236 4.89694 4.73827 5.2554C4.37417 5.61385 4.08503 6.04116 3.88766 6.51243C3.6903 6.98371 3.58866 7.48953 3.58866 8.00047C3.58866 8.5114 3.6903 9.01723 3.88766 9.48851C4.08503 9.95978 4.37417 10.3871 4.73827 10.7455C5.10236 11.104 5.53412 11.3864 6.00842 11.5764C6.48271 11.7664 6.99007 11.8602 7.50094 11.8522C8.51207 11.8364 9.47645 11.4237 10.1859 10.703C10.8954 9.98243 11.293 9.01172 11.293 8.00047C11.293 6.98921 10.8954 6.01851 10.1859 5.29789C9.47645 4.57727 8.51207 4.16453 7.50094 4.14875ZM7.50094 5.49969C8.16406 5.49969 8.80003 5.76311 9.26893 6.23201C9.73783 6.70091 10.0013 7.33688 10.0013 8C10.0013 8.66312 9.73783 9.29909 9.26893 9.76799C8.80003 10.2369 8.16406 10.5003 7.50094 10.5003C6.83781 10.5003 6.20185 10.2369 5.73295 9.76799C5.26405 9.29909 5.00063 8.66312 5.00063 8C5.00063 7.33688 5.26405 6.70091 5.73295 6.23201C6.20185 5.76311 6.83781 5.49969 7.50094 5.49969Z" fill="#171C51"/>
</g>
<defs>
<clipPath id="clip0_736_4318">
<rect width="15" height="15" fill="white" transform="translate(0 0.5)"/>
</clipPath>
</defs>
</svg>
