<svg width="28" height="27" viewBox="0 0 28 27" fill="none" xmlns="http://www.w3.org/2000/svg">
<g id="ic:outline-help">
<path id="Vector" d="M14 2.25C7.79 2.25 2.75 7.29 2.75 13.5C2.75 19.71 7.79 24.75 14 24.75C20.21 24.75 25.25 19.71 25.25 13.5C25.25 7.29 20.21 2.25 14 2.25ZM15.125 21.375H12.875V19.125H15.125V21.375ZM17.4537 12.6562L16.4412 13.6912C15.6313 14.5125 15.125 15.1875 15.125 16.875H12.875V16.3125C12.875 15.075 13.3813 13.95 14.1912 13.1287L15.5863 11.7113C16.0025 11.3062 16.25 10.7437 16.25 10.125C16.25 8.8875 15.2375 7.875 14 7.875C12.7625 7.875 11.75 8.8875 11.75 10.125H9.5C9.5 7.63875 11.5138 5.625 14 5.625C16.4862 5.625 18.5 7.63875 18.5 10.125C18.5 11.115 18.095 12.015 17.4537 12.6562Z" fill="#6F6C99"/>
</g>
</svg>
