<svg width="100" height="100" viewBox="0 0 100 100" fill="none" xmlns="http://www.w3.org/2000/svg">
<g id="fluent:book-question-mark-24-filled">
<path id="Vector" d="M16.6666 18.75V81.25C16.6666 84.0127 17.7641 86.6622 19.7176 88.6157C21.6711 90.5692 24.3206 91.6667 27.0833 91.6667H82.2916C83.1204 91.6667 83.9153 91.3374 84.5013 90.7514C85.0874 90.1653 85.4166 89.3705 85.4166 88.5417C85.4166 87.7129 85.0874 86.918 84.5013 86.332C83.9153 85.7459 83.1204 85.4167 82.2916 85.4167H27.0833C25.9782 85.4167 24.9184 84.9777 24.137 84.1963C23.3556 83.4149 22.9166 82.3551 22.9166 81.25H82.2916C83.1204 81.25 83.9153 80.9208 84.5013 80.3347C85.0874 79.7487 85.4166 78.9538 85.4166 78.125V18.75C85.4166 17.3821 85.1472 16.0275 84.6237 14.7637C84.1002 13.4999 83.3329 12.3516 82.3657 11.3843C81.3984 10.417 80.2501 9.64975 78.9862 9.12627C77.7224 8.60278 76.3679 8.33334 75 8.33334H27.0833C24.3206 8.33334 21.6711 9.43081 19.7176 11.3843C17.7641 13.3378 16.6666 15.9873 16.6666 18.75ZM45.8333 33.4083C45.8137 34.2241 45.4758 34.9998 44.8919 35.5697C44.308 36.1397 43.5243 36.4586 42.7083 36.4583C39.5833 36.4583 39.5833 33.3292 39.5833 33.3292V33.2917C39.5855 33.1051 39.5966 32.9188 39.6166 32.7333C39.8009 31.1238 40.4044 29.5908 41.3666 28.2875C43.2583 25.7333 46.6583 23.8625 52.1375 23.9583C56.0958 24.0292 59.6083 25.6875 61.8083 28.4167C64.0458 31.1958 64.8 34.9583 63.3166 38.6625C61.8083 42.4333 58.3958 43.9333 56.4333 44.7917L56.225 44.8875C55.0583 45.4 54.5041 45.6667 54.1708 45.9333L54.1666 45.9375V48.9542C54.1672 49.783 53.8385 50.5781 53.2528 51.1645C52.6671 51.7509 51.8725 52.0807 51.0437 52.0813C50.2149 52.0818 49.4198 51.7531 48.8334 51.1674C48.2469 50.5818 47.9172 49.7871 47.9166 48.9583V45.8333C47.9166 43.6542 48.9666 42.0958 50.2625 41.0542C51.3041 40.2208 52.6166 39.6458 53.5375 39.2375L53.6958 39.1667C55.9541 38.1708 57.0291 37.5542 57.5166 36.3375C57.8028 35.6834 57.9006 34.9623 57.799 34.2556C57.6974 33.5489 57.4005 32.8845 56.9416 32.3375C56.0166 31.1917 54.3208 30.2458 52.0291 30.2083C48.1333 30.1417 46.8416 31.3958 46.3916 32.0083C46.0936 32.4129 45.9017 32.8856 45.8333 33.3833V33.4083ZM55.2083 60.4167C55.2083 61.5218 54.7693 62.5816 53.9879 63.363C53.2065 64.1444 52.1467 64.5833 51.0416 64.5833C49.9366 64.5833 48.8767 64.1444 48.0953 63.363C47.3139 62.5816 46.875 61.5218 46.875 60.4167C46.875 59.3116 47.3139 58.2518 48.0953 57.4704C48.8767 56.689 49.9366 56.25 51.0416 56.25C52.1467 56.25 53.2065 56.689 53.9879 57.4704C54.7693 58.2518 55.2083 59.3116 55.2083 60.4167Z" fill="#6F6C99"/>
</g>
</svg>
