<svg width="50" height="50" viewBox="0 0 50 50" fill="none" xmlns="http://www.w3.org/2000/svg">
<g id="fluent:person-support-28-filled">
<path id="Vector" d="M21.7268 31.7893L21.716 31.7643C21.5004 31.7135 21.2861 31.6575 21.0732 31.5964L21.0571 31.5911C19.0198 31.0064 17.1384 29.9748 15.55 28.5714C13.8024 27.0299 12.4586 25.0842 11.6355 22.9041C10.8125 20.724 10.5352 18.3756 10.828 16.0638C11.1207 13.7519 11.9745 11.5468 13.315 9.64066C14.6555 7.73451 16.442 6.18523 18.5186 5.12789C20.5952 4.07055 22.8989 3.53726 25.2289 3.57452C27.5589 3.61178 29.8444 4.21846 31.8862 5.34166C33.9279 6.46486 35.6639 8.07048 36.9428 10.0185C38.2216 11.9665 39.0045 14.1978 39.2232 16.5179C39.2928 17.2554 38.6875 17.8572 37.9464 17.8572C37.2071 17.8572 36.616 17.2554 36.5303 16.5197C36.2943 14.4898 35.5265 12.5583 34.3046 10.9203C33.0827 9.28231 31.4501 7.99594 29.5717 7.19122C27.6933 6.38651 25.6357 6.09197 23.607 6.33738C21.5782 6.58279 19.6503 7.35945 18.0179 8.58885C16.3856 9.81825 15.1067 11.4568 14.3107 13.3389C13.5146 15.221 13.2295 17.2799 13.4843 19.3075C13.739 21.335 14.5246 23.2594 15.7615 24.8861C16.9984 26.5128 18.6428 27.784 20.5285 28.5714L20.6 28.6018C20.9571 28.7482 21.325 28.8768 21.7 28.9893C22.016 28.2256 22.5872 27.5951 23.3161 27.2054C24.0451 26.8157 24.8866 26.6909 25.6972 26.8523C26.5079 27.0136 27.2375 27.4512 27.7616 28.0903C28.2857 28.7295 28.5719 29.5306 28.5714 30.3572C28.5722 31.1779 28.2902 31.9739 27.773 32.6112C27.2558 33.2485 26.5348 33.6882 25.7314 33.8563C24.928 34.0244 24.0912 33.9107 23.3619 33.5342C22.6325 33.1577 22.0551 32.5415 21.7268 31.7893ZM19.966 34.0607C16.7944 33.0728 13.982 31.1768 11.8768 28.6072C10.5727 28.7599 9.37009 29.3862 8.49739 30.3672C7.6247 31.3482 7.14266 32.6156 7.14282 33.9286V35.2054C7.14282 41.8447 14.6607 46.4286 25 46.4286C35.3393 46.4286 42.8571 41.5929 42.8571 35.2054V33.9286C42.8571 32.5078 42.2927 31.1452 41.288 30.1405C40.2834 29.1358 38.9208 28.5714 37.5 28.5714H30.991C31.4123 29.9822 31.3219 31.4964 30.7359 32.8471C30.1499 34.1978 29.1059 35.2982 27.7879 35.9544C26.47 36.6106 24.9626 36.7805 23.5316 36.4341C22.1007 36.0876 20.8379 35.2471 19.966 34.0607ZM33.9285 17.8572C33.9285 15.1572 32.7321 12.7375 30.8375 11.1C29.8868 10.2799 28.7739 9.66958 27.5714 9.30876C26.3689 8.94794 25.1039 8.84477 23.8588 9.006C22.6137 9.16722 21.4166 9.58921 20.3457 10.2444C19.2748 10.8996 18.354 11.7733 17.6436 12.8085C16.9332 13.8436 16.4491 15.017 16.2229 16.2519C15.9967 17.4868 16.0335 18.7556 16.3308 19.9753C16.6282 21.1951 17.1794 22.3384 17.9486 23.3307C18.7178 24.3229 19.6875 25.1419 20.7946 25.7339C21.9438 24.6852 23.4441 24.1048 25 24.1072C26.5563 24.1051 28.057 24.6854 29.2071 25.7339C30.6338 24.9718 31.8266 23.8364 32.6581 22.4491C33.4897 21.0618 33.9288 19.4746 33.9285 17.8572Z" fill="#6F6C99"/>
</g>
</svg>
