<svg width="28" height="27" viewBox="0 0 28 27" fill="none" xmlns="http://www.w3.org/2000/svg">
<g id="Send-Icon" clip-path="url(#clip0_1082_869)">
<path id="Vector" d="M5 21.375L23 21.375L23 14.625C23 14.0037 23.5037 13.5 24.125 13.5C24.7463 13.5 25.25 14.0037 25.25 14.625L25.25 22.5C25.25 22.7984 25.1315 23.0845 24.9205 23.2955C24.7095 23.5065 24.4234 23.625 24.125 23.625L3.875 23.625C3.57663 23.625 3.29048 23.5065 3.0795 23.2955C2.86852 23.0845 2.75 22.7984 2.75 22.5L2.75 14.625C2.75 14.0037 3.25368 13.5 3.875 13.5C4.49632 13.5 5 14.0037 5 14.625L5 21.375Z" fill="#6F6C99"/>
<path id="Vector_2" d="M13.1322 6.87403L9.12249 11.0973C8.77161 11.4669 8.18263 11.4669 7.83174 11.0973C7.50569 10.7539 7.50569 10.2153 7.83174 9.87185L12.9311 4.50079C13.5123 3.88871 14.4877 3.88871 15.0689 4.50079L20.1683 9.87185C20.4943 10.2153 20.4943 10.7539 20.1683 11.0973C19.8174 11.4669 19.2284 11.4669 18.8775 11.0973L14.8678 6.87403L14.8678 17.1322C14.8678 17.6115 14.4793 18 14 18C13.5207 18 13.1322 17.6115 13.1322 17.1322L13.1322 6.87403Z" fill="#6F6C99"/>
</g>
<defs>
<clipPath id="clip0_1082_869">
<rect width="27" height="27" fill="white" transform="translate(0.5)"/>
</clipPath>
</defs>
</svg>
