<svg width="28" height="28" viewBox="0 0 28 28" fill="none" xmlns="http://www.w3.org/2000/svg">
<g id="ph:book-fill">
<path id="Vector" d="M23.2812 3.875V20.75C23.2812 20.9738 23.1924 21.1884 23.0341 21.3466C22.8759 21.5049 22.6613 21.5938 22.4375 21.5938H8.09375C7.6462 21.5938 7.21697 21.7715 6.90051 22.088C6.58404 22.4045 6.40625 22.8337 6.40625 23.2812H20.75C20.9738 23.2812 21.1884 23.3701 21.3466 23.5284C21.5049 23.6866 21.5938 23.9012 21.5938 24.125C21.5938 24.3488 21.5049 24.5634 21.3466 24.7216C21.1884 24.8799 20.9738 24.9688 20.75 24.9688H5.5625C5.33872 24.9688 5.12411 24.8799 4.96588 24.7216C4.80765 24.5634 4.71875 24.3488 4.71875 24.125V6.40625C4.71875 5.51114 5.07433 4.6527 5.70726 4.01976C6.3402 3.38683 7.19864 3.03125 8.09375 3.03125H22.4375C22.6613 3.03125 22.8759 3.12014 23.0341 3.27838C23.1924 3.43661 23.2812 3.65122 23.2812 3.875Z" fill="#6F6C99"/>
</g>
</svg>
