<svg width="28" height="28" viewBox="0 0 28 28" fill="none" xmlns="http://www.w3.org/2000/svg">
<g id="material-symbols:overview-sharp">
<path id="Vector" d="M22.6344 23.4219L23.4219 22.6344L21.3125 20.525V17.375H20.1875V20.975L22.6344 23.4219ZM20.75 26.375C19.1938 26.375 17.867 25.8264 16.7697 24.7291C15.6725 23.6319 15.1243 22.3055 15.125 20.75C15.125 19.1938 15.6736 17.867 16.7709 16.7697C17.8681 15.6725 19.1945 15.1243 20.75 15.125C22.3062 15.125 23.633 15.6736 24.7302 16.7709C25.8275 17.8681 26.3757 19.1945 26.375 20.75C26.375 22.3062 25.8264 23.633 24.7291 24.7302C23.6319 25.8275 22.3055 26.3757 20.75 26.375ZM8.375 10.625H19.625V8.375H8.375V10.625ZM13.6344 24.125H3.875V3.875H24.125V13.6625C23.5812 13.4 23.0326 13.2031 22.4791 13.0719C21.9256 12.9406 21.3493 12.875 20.75 12.875C20.5438 12.875 20.3514 12.8799 20.1729 12.8896C19.9944 12.8994 19.8118 12.9226 19.625 12.9594V12.875H8.375V15.125H15.2656C14.9281 15.4438 14.6233 15.7906 14.351 16.1656C14.0788 16.5406 13.8399 16.9438 13.6344 17.375H8.375V19.625H12.9594C12.9219 19.8125 12.8982 19.9955 12.8885 20.174C12.8787 20.3525 12.8743 20.5445 12.875 20.75C12.875 21.3687 12.9312 21.9455 13.0437 22.4802C13.1562 23.015 13.3531 23.5632 13.6344 24.125Z" fill="#6F6C99"/>
</g>
</svg>
