<svg width="28" height="27" viewBox="0 0 28 27" fill="none" xmlns="http://www.w3.org/2000/svg">
<g id="ph:certificate-fill">
<path id="Vector" d="M24.9688 9.37195V5.90625C24.9688 5.4587 24.791 5.02947 24.4745 4.71301C24.158 4.39654 23.7288 4.21875 23.2812 4.21875H4.71875C4.2712 4.21875 3.84197 4.39654 3.52551 4.71301C3.20904 5.02947 3.03125 5.4587 3.03125 5.90625V19.4062C3.03125 19.8538 3.20904 20.283 3.52551 20.5995C3.84197 20.916 4.2712 21.0938 4.71875 21.0938H16.5312V23.625C16.5311 23.7689 16.5678 23.9104 16.6379 24.0361C16.7079 24.1619 16.8089 24.2676 16.9313 24.3433C17.0537 24.4189 17.1934 24.462 17.3371 24.4685C17.4809 24.475 17.6239 24.4446 17.7526 24.3802L20.75 22.8804L23.7474 24.3802C23.8761 24.4446 24.0191 24.475 24.1629 24.4685C24.3066 24.462 24.4463 24.4189 24.5687 24.3433C24.6911 24.2676 24.7921 24.1619 24.8621 24.0361C24.9322 23.9104 24.9689 23.7689 24.9688 23.625V17.628C26.0504 16.5263 26.6564 15.044 26.6564 13.5C26.6564 11.956 26.0504 10.4737 24.9688 9.37195ZM14 15.1875H8.09375C7.86997 15.1875 7.65536 15.0986 7.49713 14.9404C7.33889 14.7821 7.25 14.5675 7.25 14.3438C7.25 14.12 7.33889 13.9054 7.49713 13.7471C7.65536 13.5889 7.86997 13.5 8.09375 13.5H14C14.2238 13.5 14.4384 13.5889 14.5966 13.7471C14.7549 13.9054 14.8438 14.12 14.8438 14.3438C14.8438 14.5675 14.7549 14.7821 14.5966 14.9404C14.4384 15.0986 14.2238 15.1875 14 15.1875ZM14 11.8125H8.09375C7.86997 11.8125 7.65536 11.7236 7.49713 11.5654C7.33889 11.4071 7.25 11.1925 7.25 10.9688C7.25 10.745 7.33889 10.5304 7.49713 10.3721C7.65536 10.2139 7.86997 10.125 8.09375 10.125H14C14.2238 10.125 14.4384 10.2139 14.5966 10.3721C14.7549 10.5304 14.8438 10.745 14.8438 10.9688C14.8438 11.1925 14.7549 11.4071 14.5966 11.5654C14.4384 11.7236 14.2238 11.8125 14 11.8125ZM23.2812 22.2602L21.1276 21.1823C21.0104 21.1237 20.8811 21.0931 20.75 21.0931C20.6189 21.0931 20.4896 21.1237 20.3724 21.1823L18.2188 22.2602V18.8357C19.0097 19.2113 19.8744 19.4062 20.75 19.4062C21.6256 19.4062 22.4903 19.2113 23.2812 18.8357V22.2602ZM20.75 17.7188C19.9156 17.7188 19.1 17.4713 18.4062 17.0078C17.7124 16.5442 17.1717 15.8853 16.8524 15.1144C16.5331 14.3436 16.4495 13.4953 16.6123 12.677C16.7751 11.8586 17.1769 11.1069 17.7669 10.5169C18.3569 9.92689 19.1086 9.52509 19.927 9.36231C20.7453 9.19953 21.5936 9.28308 22.3644 9.60238C23.1353 9.92169 23.7942 10.4624 24.2578 11.1562C24.7213 11.85 24.9688 12.6656 24.9688 13.5C24.9688 14.6189 24.5243 15.6919 23.7331 16.4831C22.9419 17.2743 21.8689 17.7188 20.75 17.7188Z" fill="#6F6C99"/>
</g>
</svg>
