<svg width="50" height="50" viewBox="0 0 50 50" fill="none" xmlns="http://www.w3.org/2000/svg">
<g id="clarity:bank-solid-badged" clip-path="url(#clip0_41_536)">
<path id="Vector" d="M45.625 37.5H44.4445V36.3194C44.4445 35.8958 44.2762 35.4896 43.9767 35.19C43.6771 34.8905 43.2709 34.7222 42.8473 34.7222H38.8889V24.4861H33.3334V34.7222H27.7778V24.4861H22.2223V34.7222H16.6667V24.4861H11.1112V34.7222H7.15283C6.72922 34.7222 6.32296 34.8905 6.02343 35.19C5.72389 35.4896 5.55561 35.8958 5.55561 36.3194V37.5H4.37505C3.95144 37.5 3.54518 37.6683 3.24565 37.9678C2.94611 38.2674 2.77783 38.6736 2.77783 39.0972V43.0556H47.2223V39.0972C47.2223 38.6736 47.054 38.2674 46.7545 37.9678C46.4549 37.6683 46.0487 37.5 45.625 37.5Z" fill="#6F6C99"/>
<path id="Vector_2" d="M41.6667 18.75C40.1961 18.7565 38.7408 18.4503 37.3975 17.8517C36.0542 17.2531 34.8535 16.3757 33.8751 15.2778H30.7639L25.3473 12.1667L19.9306 15.2778H15.4723L24.8056 9.91667C24.9745 9.81915 25.1661 9.76781 25.3612 9.76781C25.5562 9.76781 25.7478 9.81915 25.9167 9.91667L32.8612 13.9028C31.8044 12.2378 31.2454 10.3054 31.2501 8.33333V7.66667L25.0001 4.05556L3.47228 16.4306C3.3063 16.5174 3.1596 16.6369 3.041 16.7819C2.9224 16.9269 2.83436 17.0944 2.78217 17.2743C2.72998 17.4542 2.71472 17.6428 2.73731 17.8287C2.75989 18.0147 2.81986 18.1941 2.91361 18.3563C3.00735 18.5185 3.13293 18.66 3.28279 18.7724C3.43265 18.8848 3.60369 18.9657 3.78563 19.0102C3.96757 19.0548 4.15664 19.0621 4.34148 19.0317C4.52631 19.0013 4.70309 18.9338 4.86117 18.8333L6.9445 17.6111V22.2222H43.0556V18.6389C42.5956 18.7068 42.1316 18.7439 41.6667 18.75Z" fill="#6F6C99"/>
<path id="Vector_3" d="M44.3611 18.3889L45.1389 18.8333C45.3836 18.9718 45.6646 19.0327 45.9447 19.0081C46.2248 18.9834 46.4908 18.8743 46.7076 18.6952C46.9244 18.516 47.0816 18.2753 47.1586 18.0049C47.2356 17.7344 47.2287 17.447 47.1389 17.1805C46.2772 17.7174 45.3413 18.1245 44.3611 18.3889Z" fill="#6F6C99"/>
<path id="Vector_4" d="M41.6666 15.2778C45.5019 15.2778 48.6111 12.1686 48.6111 8.33333C48.6111 4.49802 45.5019 1.38889 41.6666 1.38889C37.8313 1.38889 34.7222 4.49802 34.7222 8.33333C34.7222 12.1686 37.8313 15.2778 41.6666 15.2778Z" fill="#6F6C99"/>
</g>
<defs>
<clipPath id="clip0_41_536">
<rect width="50" height="50" fill="white"/>
</clipPath>
</defs>
</svg>
