<svg width="28" height="28" viewBox="0 0 28 28" fill="none" xmlns="http://www.w3.org/2000/svg">
<g id="mdi:account-clock-outline" clip-path="url(#clip0_1082_843)">
<path id="Vector" d="M18.5 16.25H20.1875V19.4225L22.9325 21.0087L22.0888 22.4713L18.5 20.4013V16.25ZM19.625 14C18.1332 14 16.7024 14.5926 15.6475 15.6475C14.5926 16.7024 14 18.1332 14 19.625C14 21.1168 14.5926 22.5476 15.6475 23.6025C16.7024 24.6574 18.1332 25.25 19.625 25.25C21.1168 25.25 22.5476 24.6574 23.6025 23.6025C24.6574 22.5476 25.25 21.1168 25.25 19.625C25.25 18.1332 24.6574 16.7024 23.6025 15.6475C22.5476 14.5926 21.1168 14 19.625 14ZM19.625 11.75C21.7136 11.75 23.7166 12.5797 25.1935 14.0565C26.6703 15.5334 27.5 17.5364 27.5 19.625C27.5 21.7136 26.6703 23.7166 25.1935 25.1935C23.7166 26.6703 21.7136 27.5 19.625 27.5C16.4862 27.5 13.775 25.655 12.5037 23H1.625V19.625C1.625 16.6325 7.62125 15.125 10.625 15.125C11.3 15.125 12.1325 15.2037 13.01 15.35C13.7236 14.2446 14.703 13.3358 15.8587 12.7069C17.0143 12.0779 18.3093 11.749 19.625 11.75ZM11.75 19.625C11.75 18.8375 11.8625 18.0725 12.0763 17.375C11.6038 17.2963 11.1088 17.2625 10.625 17.2625C7.28375 17.2625 3.7625 18.905 3.7625 19.625V20.8625H11.8512C11.7836 20.4535 11.7497 20.0396 11.75 19.625ZM10.625 5C11.8185 5 12.9631 5.47411 13.807 6.31802C14.6509 7.16193 15.125 8.30653 15.125 9.5C15.125 10.6935 14.6509 11.8381 13.807 12.682C12.9631 13.5259 11.8185 14 10.625 14C9.43153 14 8.28693 13.5259 7.44302 12.682C6.59911 11.8381 6.125 10.6935 6.125 9.5C6.125 8.30653 6.59911 7.16193 7.44302 6.31802C8.28693 5.47411 9.43153 5 10.625 5ZM10.625 7.1375C9.99843 7.1375 9.39751 7.38641 8.95446 7.82946C8.51141 8.27251 8.2625 8.87343 8.2625 9.5C8.2625 10.1266 8.51141 10.7275 8.95446 11.1705C9.39751 11.6136 9.99843 11.8625 10.625 11.8625C11.2516 11.8625 11.8525 11.6136 12.2955 11.1705C12.7386 10.7275 12.9875 10.1266 12.9875 9.5C12.9875 8.87343 12.7386 8.27251 12.2955 7.82946C11.8525 7.38641 11.2516 7.1375 10.625 7.1375Z" fill="#0F4C81"/>
</g>
<defs>
<clipPath id="clip0_1082_843">
<rect width="27" height="27" fill="white" transform="translate(0.5 0.5)"/>
</clipPath>
</defs>
</svg>
