<svg width="24" height="24" viewBox="0 0 24 24" fill="none" xmlns="http://www.w3.org/2000/svg">
<g id="solar:dollar-minimalistic-broken">
<g id="Group">
<path id="Vector" d="M12 17V18M12 17C13.657 17 15 15.88 15 14.5C15 13.12 13.657 12 12 12C10.343 12 9 10.88 9 9.5C9 8.12 10.343 7 12 7M12 17C10.343 17 9 15.88 9 14.5M12 6V7M12 7C13.657 7 15 8.12 15 9.5" stroke="#6F6C99" stroke-width="1.5" stroke-linecap="round"/>
<path id="Vector_2" d="M7 3.338C8.51952 2.4589 10.2445 1.99729 12 2C17.523 2 22 6.477 22 12C22 17.523 17.523 22 12 22C6.477 22 2 17.523 2 12C2 10.179 2.487 8.47 3.338 7" stroke="#6F6C99" stroke-width="1.5" stroke-linecap="round"/>
</g>
</g>
</svg>
