<svg width="84" height="84" viewBox="0 0 84 84" fill="none" xmlns="http://www.w3.org/2000/svg">
<path id="Vector" d="M16.375 63.25C19.9167 60.5417 23.875 58.4056 28.25 56.8417C32.625 55.2778 37.2083 54.4972 42 54.5C46.7917 54.5 51.375 55.2819 55.75 56.8458C60.125 58.4097 64.0833 60.5444 67.625 63.25C70.0556 60.4028 71.9486 57.1736 73.3042 53.5625C74.6597 49.9514 75.3361 46.0972 75.3334 42C75.3334 32.7639 72.0875 24.8986 65.5958 18.4042C59.1042 11.9097 51.2389 8.66388 42 8.66666C32.7639 8.66666 24.8986 11.9125 18.4042 18.4042C11.9097 24.8958 8.6639 32.7611 8.66668 42C8.66668 46.0972 9.34445 49.9514 10.7 53.5625C12.0556 57.1736 13.9472 60.4028 16.375 63.25ZM42 46.1667C37.9028 46.1667 34.4472 44.7611 31.6333 41.95C28.8195 39.1389 27.4139 35.6833 27.4167 31.5833C27.4167 27.4861 28.8222 24.0306 31.6333 21.2167C34.4445 18.4028 37.9 16.9972 42 17C46.0972 17 49.5528 18.4056 52.3667 21.2167C55.1806 24.0278 56.5861 27.4833 56.5833 31.5833C56.5833 35.6806 55.1778 39.1361 52.3667 41.95C49.5556 44.7639 46.1 46.1694 42 46.1667ZM42 83.6667C36.2361 83.6667 30.8195 82.5722 25.75 80.3833C20.6806 78.1944 16.2708 75.2264 12.5208 71.4792C8.77085 67.7292 5.80279 63.3194 3.61668 58.25C1.43057 53.1806 0.336121 47.7639 0.333344 42C0.333344 36.2361 1.42779 30.8194 3.61668 25.75C5.80557 20.6806 8.77362 16.2708 12.5208 12.5208C16.2708 8.77083 20.6806 5.80277 25.75 3.61666C30.8195 1.43055 36.2361 0.336106 42 0.333328C47.7639 0.333328 53.1806 1.42777 58.25 3.61666C63.3195 5.80555 67.7292 8.77361 71.4792 12.5208C75.2292 16.2708 78.1986 20.6806 80.3875 25.75C82.5764 30.8194 83.6695 36.2361 83.6667 42C83.6667 47.7639 82.5722 53.1806 80.3833 58.25C78.1945 63.3194 75.2264 67.7292 71.4792 71.4792C67.7292 75.2292 63.3195 78.1986 58.25 80.3875C53.1806 82.5764 47.7639 83.6694 42 83.6667Z" fill="#683AB5"/>
</svg>
