<svg width="24" height="24" viewBox="0 0 24 24" fill="none" xmlns="http://www.w3.org/2000/svg">
<g id="Frame" clip-path="url(#clip0_1144_4389)">
<path id="Vector" d="M16.2944 3.4882C19.241 3.4882 21.6288 5.91293 21.6288 9.30756C21.6288 16.0968 14.3546 19.9764 11.9299 21.4312C9.50516 19.9764 2.23096 16.0968 2.23096 9.30756C2.23096 5.91293 4.65569 3.4882 7.56538 3.4882C9.36938 3.4882 10.96 4.45809 11.9299 5.42799C12.8998 4.45809 14.4904 3.4882 16.2944 3.4882ZM12.8358 18.6224C13.6903 18.0832 14.4613 17.5468 15.1829 16.9726C18.0742 14.674 19.6891 12.162 19.6891 9.30756C19.6891 7.01861 18.1983 5.42799 16.2944 5.42799C15.2508 5.42799 14.1219 5.98083 13.3013 6.79942L11.9299 8.17085L10.5585 6.79942C9.73794 5.98083 8.60898 5.42799 7.56538 5.42799C5.68378 5.42799 4.17075 7.03413 4.17075 9.30756C4.17075 12.1629 5.78659 14.674 8.6759 16.9726C9.39848 17.5468 10.1695 18.0832 11.024 18.6215C11.314 18.8048 11.6011 18.9803 11.9299 19.1762C12.2587 18.9803 12.5458 18.8048 12.8358 18.6224Z" fill="#0F4C81"/>
</g>
<defs>
<clipPath id="clip0_1144_4389">
<rect width="23.2775" height="23.2775" fill="white" transform="translate(0.291016 0.578518)"/>
</clipPath>
</defs>
</svg>
