<svg width="15" height="16" viewBox="0 0 15 16" fill="none" xmlns="http://www.w3.org/2000/svg">
<g id="Verification" clip-path="url(#clip0_1144_4372)">
<path id="Vector" fill-rule="evenodd" clip-rule="evenodd" d="M9.73225 1.93746L7.39367 0.638947L5.05504 1.93746L2.4832 2.67292L1.74773 5.24477L0.449219 7.58339L1.74773 9.92199L2.4832 12.4938L5.05504 13.2293L7.39367 14.5278L9.73225 13.2293L12.3042 12.4938L13.0396 9.92199L14.3381 7.58339L13.0396 5.24477L12.3042 2.67292L9.73225 1.93746ZM10.8012 6.04583C11.1026 5.69804 11.065 5.17174 10.7172 4.87031C10.3694 4.56889 9.84308 4.60649 9.54167 4.95428L6.56033 8.39432L5.24563 6.87736C4.9442 6.52956 4.41791 6.49197 4.07011 6.79339C3.72232 7.09481 3.68472 7.62111 3.98614 7.96891L5.93059 10.2125C6.08888 10.3952 6.31865 10.5001 6.56033 10.5001C6.80201 10.5001 7.03178 10.3952 7.19007 10.2125L10.8012 6.04583Z" fill="#3861FB"/>
</g>
<defs>
<clipPath id="clip0_1144_4372">
<rect width="15" height="15" fill="white" transform="translate(0 0.5)"/>
</clipPath>
</defs>
</svg>
