<svg width="15" height="16" viewBox="0 0 15 16" fill="none" xmlns="http://www.w3.org/2000/svg">
<g id="Frame" clip-path="url(#clip0_969_9998)">
<path id="Vector" fill-rule="evenodd" clip-rule="evenodd" d="M9.73225 1.93748L7.39367 0.638962L5.05504 1.93748L2.4832 2.67294L1.74773 5.24479L0.449219 7.58341L1.74773 9.922L2.4832 12.4938L5.05504 13.2293L7.39367 14.5278L9.73225 13.2293L12.3042 12.4938L13.0396 9.922L14.3381 7.58341L13.0396 5.24479L12.3042 2.67294L9.73225 1.93748ZM10.8012 6.04585C11.1026 5.69806 11.065 5.17175 10.7172 4.87033C10.3694 4.5689 9.84308 4.6065 9.54167 4.9543L6.56033 8.39434L5.24563 6.87737C4.9442 6.52958 4.41791 6.49199 4.07011 6.79341C3.72232 7.09483 3.68472 7.62113 3.98614 7.96892L5.93059 10.2125C6.08888 10.3952 6.31865 10.5001 6.56033 10.5001C6.80201 10.5001 7.03178 10.3952 7.19007 10.2125L10.8012 6.04585Z" fill="#0CAF60"/>
</g>
<defs>
<clipPath id="clip0_969_9998">
<rect width="15" height="15" fill="white" transform="translate(0 0.5)"/>
</clipPath>
</defs>
</svg>
