<svg width="24" height="24" viewBox="0 0 24 24" fill="none" xmlns="http://www.w3.org/2000/svg">
<g id="Frame" clip-path="url(#clip0_969_10037)">
<path id="Vector" d="M16.5029 3.48819C19.4495 3.48819 21.8373 5.91293 21.8373 9.30756C21.8373 16.0968 14.5631 19.9764 12.1384 21.4312C9.71366 19.9764 2.43945 16.0968 2.43945 9.30756C2.43945 5.91293 4.86419 3.48819 7.77387 3.48819C9.57787 3.48819 11.1685 4.45808 12.1384 5.42798C13.1083 4.45808 14.6989 3.48819 16.5029 3.48819ZM13.0443 18.6224C13.8988 18.0832 14.6698 17.5468 15.3914 16.9726C18.2827 14.674 19.8975 12.162 19.8975 9.30756C19.8975 7.0186 18.4068 5.42798 16.5029 5.42798C15.4593 5.42798 14.3304 5.98082 13.5098 6.79941L12.1384 8.17084L10.767 6.79941C9.94643 5.98082 8.81748 5.42798 7.77387 5.42798C5.89228 5.42798 4.37924 7.03412 4.37924 9.30756C4.37924 12.1629 5.99509 14.674 8.8844 16.9726C9.60697 17.5468 10.378 18.0832 11.2325 18.6215C11.5225 18.8048 11.8096 18.9803 12.1384 19.1762C12.4672 18.9803 12.7543 18.8048 13.0443 18.6224Z" fill="#031A2E"/>
</g>
<defs>
<clipPath id="clip0_969_10037">
<rect width="23.2775" height="23.2775" fill="white" transform="translate(0.5 0.578522)"/>
</clipPath>
</defs>
</svg>
