<svg width="24" height="24" viewBox="0 0 24 24" fill="none" xmlns="http://www.w3.org/2000/svg">
<g id="Frame" clip-path="url(#clip0_969_10031)">
<path id="Vector" d="M13.1202 17.023L8.92121 14.733C8.373 15.3191 7.66119 15.7267 6.87828 15.9029C6.09537 16.0791 5.27756 16.0157 4.53113 15.721C3.7847 15.4263 3.14417 14.9139 2.69277 14.2504C2.24138 13.5869 2 12.803 2 12.0005C2 11.198 2.24138 10.4141 2.69277 9.75055C3.14417 9.08704 3.7847 8.57464 4.53113 8.27995C5.27756 7.98526 6.09537 7.9219 6.87828 8.0981C7.66119 8.27431 8.373 8.68193 8.92121 9.26799L13.1212 6.97799C12.8828 6.03406 12.9968 5.03558 13.4418 4.16969C13.8869 3.30381 14.6325 2.62997 15.5389 2.27449C16.4452 1.91901 17.4501 1.90629 18.3652 2.23872C19.2803 2.57115 20.0427 3.22591 20.5095 4.08025C20.9764 4.9346 21.1156 5.92988 20.9011 6.87954C20.6866 7.82919 20.1332 8.66803 19.3444 9.2388C18.5557 9.80957 17.5859 10.0731 16.6168 9.97998C15.6477 9.88687 14.7458 9.4435 14.0802 8.73299L9.88021 11.023C10.0414 11.6643 10.0414 12.3356 9.88021 12.977L14.0792 15.267C14.7448 14.5565 15.6467 14.1131 16.6158 14.02C17.5849 13.9269 18.5547 14.1904 19.3434 14.7612C20.1322 15.332 20.6856 16.1708 20.9001 17.1204C21.1146 18.0701 20.9754 19.0654 20.5085 19.9197C20.0417 20.7741 19.2793 21.4288 18.3642 21.7613C17.4491 22.0937 16.4442 22.081 15.5379 21.7255C14.6315 21.37 13.8859 20.6962 13.4408 19.8303C12.9958 18.9644 12.8818 17.9659 13.1202 17.022V17.023ZM6.00021 14C6.53064 14 7.03935 13.7893 7.41442 13.4142C7.78949 13.0391 8.00021 12.5304 8.00021 12C8.00021 11.4696 7.78949 10.9608 7.41442 10.5858C7.03935 10.2107 6.53064 9.99999 6.00021 9.99999C5.46977 9.99999 4.96107 10.2107 4.58599 10.5858C4.21092 10.9608 4.00021 11.4696 4.00021 12C4.00021 12.5304 4.21092 13.0391 4.58599 13.4142C4.96107 13.7893 5.46977 14 6.00021 14ZM17.0002 7.99999C17.5306 7.99999 18.0393 7.78928 18.4144 7.4142C18.7895 7.03913 19.0002 6.53042 19.0002 5.99999C19.0002 5.46956 18.7895 4.96085 18.4144 4.58578C18.0393 4.2107 17.5306 3.99999 17.0002 3.99999C16.4698 3.99999 15.9611 4.2107 15.586 4.58578C15.2109 4.96085 15.0002 5.46956 15.0002 5.99999C15.0002 6.53042 15.2109 7.03913 15.586 7.4142C15.9611 7.78928 16.4698 7.99999 17.0002 7.99999ZM17.0002 20C17.5306 20 18.0393 19.7893 18.4144 19.4142C18.7895 19.0391 19.0002 18.5304 19.0002 18C19.0002 17.4696 18.7895 16.9608 18.4144 16.5858C18.0393 16.2107 17.5306 16 17.0002 16C16.4698 16 15.9611 16.2107 15.586 16.5858C15.2109 16.9608 15.0002 17.4696 15.0002 18C15.0002 18.5304 15.2109 19.0391 15.586 19.4142C15.9611 19.7893 16.4698 20 17.0002 20Z" fill="#031A2E"/>
</g>
<defs>
<clipPath id="clip0_969_10031">
<rect width="24" height="24" fill="white"/>
</clipPath>
</defs>
</svg>
