<svg width="27" height="31" viewBox="0 0 27 31" fill="none" xmlns="http://www.w3.org/2000/svg">
<path id="Vector" d="M13.3957 30.8311C14.0587 30.8311 14.6946 30.5677 15.1635 30.0989C15.6323 29.6301 15.8957 28.9942 15.8957 28.3311V8.53113L22.4624 15.0978C22.9363 15.5394 23.5631 15.7798 24.2108 15.7684C24.8584 15.757 25.4764 15.4946 25.9344 15.0365C26.3925 14.5785 26.6549 13.9605 26.6663 13.3129C26.6777 12.6652 26.4373 12.0384 25.9957 11.5645L15.1624 0.731134C14.6936 0.262965 14.0582 0 13.3957 0C12.7332 0 12.0978 0.262965 11.629 0.731134L0.795694 11.5645C0.550072 11.7933 0.353064 12.0693 0.216425 12.376C0.0797846 12.6827 0.00631169 13.0137 0.000389073 13.3494C-0.00553354 13.6851 0.0562149 14.0185 0.181952 14.3298C0.307688 14.6411 0.494837 14.9239 0.732233 15.1613C0.969629 15.3987 1.25241 15.5858 1.5637 15.7115C1.875 15.8373 2.20843 15.899 2.5441 15.8931C2.87978 15.8872 3.21082 15.8137 3.51749 15.6771C3.82415 15.5404 4.10015 15.3434 4.32903 15.0978L10.8957 8.53113V28.3311C10.8957 29.7111 12.0157 30.8311 13.3957 30.8311Z" fill="#0D1B27"/>
</svg>
