<svg width="20" height="20" viewBox="0 0 20 20" fill="none" xmlns="http://www.w3.org/2000/svg">
<g id="mdi:youtube">
<path id="Vector" d="M8.33335 12.5003L12.6584 10.0003L8.33335 7.50033V12.5003ZM17.9667 5.97533C18.075 6.36699 18.15 6.89199 18.2 7.55866C18.2584 8.22533 18.2834 8.80033 18.2834 9.30033L18.3334 10.0003C18.3334 11.8253 18.2 13.167 17.9667 14.0253C17.7584 14.7753 17.275 15.2587 16.525 15.467C16.1334 15.5753 15.4167 15.6503 14.3167 15.7003C13.2334 15.7587 12.2417 15.7837 11.325 15.7837L10 15.8337C6.50835 15.8337 4.33335 15.7003 3.47502 15.467C2.72502 15.2587 2.24169 14.7753 2.03335 14.0253C1.92502 13.6337 1.85002 13.1087 1.80002 12.442C1.74169 11.7753 1.71669 11.2003 1.71669 10.7003L1.66669 10.0003C1.66669 8.17533 1.80002 6.83366 2.03335 5.97533C2.24169 5.22533 2.72502 4.74199 3.47502 4.53366C3.86669 4.42533 4.58335 4.35033 5.68335 4.30033C6.76669 4.24199 7.75835 4.21699 8.67502 4.21699L10 4.16699C13.4917 4.16699 15.6667 4.30033 16.525 4.53366C17.275 4.74199 17.7584 5.22533 17.9667 5.97533Z" fill="#171C51"/>
</g>
</svg>
