<svg width="17" height="17" viewBox="0 0 17 17" fill="none" xmlns="http://www.w3.org/2000/svg">
<g id="Union">
<path d="M5.5 7.5C5.5 7.22386 5.27614 7 5 7C4.72386 7 4.5 7.22386 4.5 7.5V14C4.5 14.2761 4.72386 14.5 5 14.5C5.27614 14.5 5.5 14.2761 5.5 14V7.5Z" fill="black"/>
<path d="M8.5 4C8.77614 4 9 4.22386 9 4.5V14C9 14.2761 8.77614 14.5 8.5 14.5C8.22386 14.5 8 14.2761 8 14V4.5C8 4.22386 8.22386 4 8.5 4Z" fill="black"/>
<path d="M12.5 10.5C12.5 10.2239 12.2761 10 12 10C11.7239 10 11.5 10.2239 11.5 10.5V14C11.5 14.2761 11.7239 14.5 12 14.5C12.2761 14.5 12.5 14.2761 12.5 14V10.5Z" fill="black"/>
<path fill-rule="evenodd" clip-rule="evenodd" d="M0 5C0 2.23858 2.23858 0 5 0H12C14.7614 0 17 2.23858 17 5V12C17 14.7614 14.7614 17 12 17H5C2.23858 17 0 14.7614 0 12V5ZM5 1H12C14.2091 1 16 2.79086 16 5V12C16 14.2091 14.2091 16 12 16H5C2.79086 16 1 14.2091 1 12V5C1 2.79086 2.79086 1 5 1Z" fill="black"/>
</g>
</svg>
