<svg width="61" height="50" viewBox="0 0 61 50" fill="none" xmlns="http://www.w3.org/2000/svg">
<path id="Vector" d="M58.6588 4.54969C57.3637 4.54969 56.3084 3.7092 56.3084 2.67768C56.3084 1.64616 57.3637 0.805664 58.6588 0.805664C59.9539 0.805664 61.0092 1.64616 61.0092 2.67768C61.0092 3.71556 59.9539 4.54969 58.6588 4.54969ZM61.0092 13.8779C61.0092 12.8464 59.9539 12.0059 58.6588 12.0059C57.3637 12.0059 56.3084 12.8464 56.3084 13.8779C56.3084 14.9094 57.3637 15.7499 58.6588 15.7499C59.9539 15.7499 61.0092 14.9158 61.0092 13.8779ZM61.0092 25.0782C61.0092 24.0466 59.9539 23.2061 58.6588 23.2061C57.3637 23.2061 56.3084 24.0466 56.3084 25.0782C56.3084 26.1097 57.3637 26.9502 58.6588 26.9502C59.9539 26.9565 61.0092 26.116 61.0092 25.0782ZM61.0092 36.2848C61.0092 35.2533 59.9539 34.4128 58.6588 34.4128C57.3637 34.4128 56.3084 35.2533 56.3084 36.2848C56.3084 37.3163 57.3637 38.1568 58.6588 38.1568C59.9539 38.1568 61.0092 37.3163 61.0092 36.2848ZM61.0092 47.485C61.0092 46.4535 59.9539 45.613 58.6588 45.613C57.3637 45.613 56.3084 46.4535 56.3084 47.485C56.3084 48.5165 57.3637 49.357 58.6588 49.357C59.9539 49.357 61.0092 48.5165 61.0092 47.485ZM46.9466 2.67768C46.9466 1.64616 45.8913 0.805664 44.5961 0.805664C43.301 0.805664 42.2457 1.64616 42.2457 2.67768C42.2457 3.7092 43.301 4.54969 44.5961 4.54969C45.8913 4.54969 46.9466 3.71556 46.9466 2.67768ZM46.9466 13.8779C46.9466 12.8464 45.8913 12.0059 44.5961 12.0059C43.301 12.0059 42.2457 12.8464 42.2457 13.8779C42.2457 14.9094 43.301 15.7499 44.5961 15.7499C45.8913 15.7499 46.9466 14.9158 46.9466 13.8779ZM46.9466 25.0782C46.9466 24.0466 45.8913 23.2061 44.5961 23.2061C43.301 23.2061 42.2457 24.0466 42.2457 25.0782C42.2457 26.1097 43.301 26.9502 44.5961 26.9502C45.8913 26.9565 46.9466 26.116 46.9466 25.0782ZM46.9466 36.2848C46.9466 35.2533 45.8913 34.4128 44.5961 34.4128C43.301 34.4128 42.2457 35.2533 42.2457 36.2848C42.2457 37.3163 43.301 38.1568 44.5961 38.1568C45.8913 38.1568 46.9466 37.3163 46.9466 36.2848ZM46.9466 47.485C46.9466 46.4535 45.8913 45.613 44.5961 45.613C43.301 45.613 42.2457 46.4535 42.2457 47.485C42.2457 48.5165 43.301 49.357 44.5961 49.357C45.8913 49.357 46.9466 48.5165 46.9466 47.485ZM32.876 2.67768C32.876 1.64616 31.8207 0.805664 30.5255 0.805664C29.2304 0.805664 28.1751 1.64616 28.1751 2.67768C28.1751 3.7092 29.2304 4.54969 30.5255 4.54969C31.8287 4.54969 32.876 3.71556 32.876 2.67768ZM32.876 13.8779C32.876 12.8464 31.8207 12.0059 30.5255 12.0059C29.2304 12.0059 28.1751 12.8464 28.1751 13.8779C28.1751 14.9094 29.2304 15.7499 30.5255 15.7499C31.8287 15.7499 32.876 14.9158 32.876 13.8779ZM32.876 25.0782C32.876 24.0466 31.8207 23.2061 30.5255 23.2061C29.2304 23.2061 28.1751 24.0466 28.1751 25.0782C28.1751 26.1097 29.2304 26.9502 30.5255 26.9502C31.8287 26.9565 32.876 26.116 32.876 25.0782ZM32.876 36.2848C32.876 35.2533 31.8207 34.4128 30.5255 34.4128C29.2304 34.4128 28.1751 35.2533 28.1751 36.2848C28.1751 37.3163 29.2304 38.1568 30.5255 38.1568C31.8287 38.1568 32.876 37.3163 32.876 36.2848ZM32.876 47.485C32.876 46.4535 31.8207 45.613 30.5255 45.613C29.2304 45.613 28.1751 46.4535 28.1751 47.485C28.1751 48.5165 29.2304 49.357 30.5255 49.357C31.8287 49.357 32.876 48.5165 32.876 47.485ZM18.8133 2.67768C18.8133 1.64616 17.758 0.805664 16.4629 0.805664C15.1677 0.805664 14.1125 1.64616 14.1125 2.67768C14.1125 3.7092 15.1677 4.54969 16.4629 4.54969C17.766 4.54969 18.8133 3.71556 18.8133 2.67768ZM18.8133 13.8779C18.8133 12.8464 17.758 12.0059 16.4629 12.0059C15.1677 12.0059 14.1125 12.8464 14.1125 13.8779C14.1125 14.9094 15.1677 15.7499 16.4629 15.7499C17.766 15.7499 18.8133 14.9158 18.8133 13.8779ZM18.8133 25.0782C18.8133 24.0466 17.758 23.2061 16.4629 23.2061C15.1677 23.2061 14.1125 24.0466 14.1125 25.0782C14.1125 26.1097 15.1677 26.9502 16.4629 26.9502C17.766 26.9565 18.8133 26.116 18.8133 25.0782ZM18.8133 36.2848C18.8133 35.2533 17.758 34.4128 16.4629 34.4128C15.1677 34.4128 14.1125 35.2533 14.1125 36.2848C14.1125 37.3163 15.1677 38.1568 16.4629 38.1568C17.766 38.1568 18.8133 37.3163 18.8133 36.2848ZM18.8133 47.485C18.8133 46.4535 17.758 45.613 16.4629 45.613C15.1677 45.613 14.1125 46.4535 14.1125 47.485C14.1125 48.5165 15.1677 49.357 16.4629 49.357C17.766 49.357 18.8133 48.5165 18.8133 47.485ZM4.75068 2.67768C4.75068 1.64616 3.69538 0.805664 2.40024 0.805664C1.1051 0.805664 0.0498047 1.64616 0.0498047 2.67768C0.0498047 3.7092 1.1051 4.54969 2.40024 4.54969C3.69538 4.54969 4.75068 3.71556 4.75068 2.67768ZM4.75068 13.8779C4.75068 12.8464 3.69538 12.0059 2.40024 12.0059C1.1051 12.0059 0.0498047 12.8464 0.0498047 13.8779C0.0498047 14.9094 1.1051 15.7499 2.40024 15.7499C3.69538 15.7499 4.75068 14.9158 4.75068 13.8779ZM4.75068 25.0782C4.75068 24.0466 3.69538 23.2061 2.40024 23.2061C1.1051 23.2061 0.0498047 24.0466 0.0498047 25.0782C0.0498047 26.1097 1.1051 26.9502 2.40024 26.9502C3.69538 26.9502 4.75068 26.116 4.75068 25.0782ZM4.75068 36.2848C4.75068 35.2533 3.69538 34.4128 2.40024 34.4128C1.1051 34.4128 0.0498047 35.2533 0.0498047 36.2848C0.0498047 37.3163 1.1051 38.1568 2.40024 38.1568C3.69538 38.1568 4.75068 37.3163 4.75068 36.2848ZM4.75068 47.485C4.75068 46.4535 3.69538 45.613 2.40024 45.613C1.1051 45.613 0.0498047 46.4535 0.0498047 47.485C0.0498047 48.5165 1.1051 49.357 2.40024 49.357C3.69538 49.357 4.75068 48.5165 4.75068 47.485Z" fill="#90FAEA"/>
</svg>
