<svg width="50" height="22" viewBox="0 0 50 22" fill="none" xmlns="http://www.w3.org/2000/svg">
<g id="GooglePay">
<g id="Pay">
<path id="Union" fill-rule="evenodd" clip-rule="evenodd" d="M23.0603 17.0169V10.975H26.1786C27.4564 10.975 28.535 10.5468 29.4142 9.70239L29.6252 9.48831C31.2313 7.73996 31.1258 5.01635 29.4142 3.39883C28.5584 2.54249 27.3861 2.07865 26.1786 2.10243H21.1729V17.0169H23.0603ZM23.0605 9.14337V3.93401H26.2262C26.9063 3.93401 27.5512 4.19567 28.0319 4.67141C29.052 5.67046 29.0754 7.33556 28.0905 8.37029C27.6098 8.88172 26.9297 9.16716 26.2262 9.14337H23.0605ZM38.4293 7.60915C37.6204 6.85985 36.5185 6.47926 35.1234 6.47926C33.3298 6.47926 31.9816 7.1453 31.0906 8.46548L32.7553 9.524C33.3649 8.6201 34.1973 8.16814 35.2524 8.16814C35.9206 8.16814 36.5653 8.41791 37.0694 8.86986C37.5618 9.29803 37.8432 9.91649 37.8432 10.5706V11.0107C37.1163 10.6063 36.2019 10.3922 35.0765 10.3922C33.7635 10.3922 32.7084 10.7015 31.923 11.3318C31.1375 11.9622 30.739 12.7947 30.739 13.8532C30.7155 14.8166 31.1258 15.7324 31.8527 16.3509C32.5912 17.0169 33.5291 17.3499 34.631 17.3499C35.9323 17.3499 36.9639 16.7672 37.7494 15.6016H37.8314V17.0169H39.6368V10.7252C39.6368 9.40507 39.2382 8.35844 38.4293 7.60915ZM33.3066 15.1377C32.9197 14.8523 32.6852 14.3884 32.6852 13.8889C32.6852 13.3299 32.9432 12.8661 33.4473 12.4974C33.9632 12.1287 34.6081 11.9384 35.3702 11.9384C36.4255 11.9265 37.2462 12.1644 37.8325 12.6401C37.8325 13.4489 37.5159 14.1506 36.8945 14.7453C36.3317 15.3161 35.5696 15.6373 34.7723 15.6373C34.2446 15.6492 33.7287 15.4708 33.3066 15.1377ZM43.693 21.5008L50.0001 6.81228H47.9485L45.0295 14.1387H44.9943L42.0049 6.81228H39.9534L44.0916 16.3628L41.747 21.5008H43.693Z" fill="#3C4043"/>
</g>
<g id="G">
<path id="Blue" d="M16.544 9.66614C16.544 9.08336 16.4971 8.50058 16.4034 7.92969H8.44336V11.2242H13.0037C12.8161 12.2827 12.2065 13.2342 11.3155 13.8289V15.9697H14.0353C15.6296 14.483 16.544 12.2827 16.544 9.66614Z" fill="#4285F4"/>
<path id="Green" d="M8.44373 18.0392C10.718 18.0392 12.6406 17.278 14.0357 15.9697L11.3159 13.8289C10.5539 14.3522 9.58087 14.6496 8.44373 14.6496C6.23978 14.6496 4.3758 13.1391 3.70759 11.1172H0.905762V13.3294C2.33598 16.2195 5.25504 18.0392 8.44373 18.0392Z" fill="#34A853"/>
<path id="Yellow" d="M3.70803 11.1177C3.35628 10.0592 3.35628 8.90548 3.70803 7.83507V5.63477H0.905755C-0.301918 8.04915 -0.301918 10.9036 0.905755 13.318L3.70803 11.1177Z" fill="#FBBC04"/>
<path id="Red" d="M8.44373 4.30228C9.65121 4.27849 10.8118 4.74234 11.6793 5.58678L14.0943 3.13672C12.5585 1.68571 10.5422 0.88884 8.44373 0.912627C5.25504 0.912627 2.33598 2.74423 0.905762 5.63436L3.70759 7.84655C4.3758 5.81276 6.23978 4.30228 8.44373 4.30228Z" fill="#EA4335"/>
</g>
</g>
</svg>
