<svg width="70" height="49" viewBox="0 0 70 49" fill="none" xmlns="http://www.w3.org/2000/svg">
<g id="credit-card">
<rect id="BASE" y="0.5" width="70" height="48" rx="4" fill="#F5F4FF"/>
<path id="Stripe" fill-rule="evenodd" clip-rule="evenodd" d="M37.6109 16.7838L34.055 17.547V14.664L37.6109 13.915V16.7838ZM23.1607 15.5543L19.704 16.2892L19.6899 27.609C19.6899 29.7005 21.2624 31.2409 23.359 31.2409C24.5207 31.2409 25.3707 31.029 25.8382 30.7746V27.9058C25.3849 28.0895 23.1465 28.7396 23.1465 26.648V21.6311H25.8382V18.621H23.1465L23.1607 15.5543ZM61 24.8532C61 21.2354 59.2433 18.3808 55.8858 18.3808C52.5142 18.3808 50.4742 21.2354 50.4742 24.825C50.4742 29.0787 52.8825 31.2268 56.3392 31.2268C58.025 31.2268 59.3 30.8452 60.2633 30.3082V27.4818C59.3 27.9623 58.195 28.2591 56.7925 28.2591C55.4183 28.2591 54.2 27.7786 54.0442 26.111H60.9717C60.9717 26.0331 60.9768 25.8563 60.9826 25.6525V25.6524V25.6523V25.6523C60.9906 25.3753 61 25.0486 61 24.8532ZM54.0016 23.5107C54.0016 21.9138 54.9791 21.2496 55.8716 21.2496C56.7358 21.2496 57.6566 21.9138 57.6566 23.5107H54.0016ZM14.7884 21.4475C14.0375 21.4475 13.5842 21.6594 13.5842 22.2106C13.5842 22.8124 14.3644 23.0771 15.3323 23.4055C16.9102 23.9409 18.9871 24.6455 18.9959 27.2557C18.9959 29.7854 16.97 31.241 14.0234 31.241C12.805 31.241 11.4733 31.0007 10.1558 30.4355V27.072C11.3458 27.7221 12.8475 28.2026 14.0234 28.2026C14.8167 28.2026 15.3834 27.9906 15.3834 27.3405C15.3834 26.674 14.5376 26.3693 13.5166 26.0015C11.9616 25.4413 10 24.7346 10 22.3802C10 19.8788 11.9125 18.3808 14.7884 18.3808C15.9642 18.3808 17.1259 18.5645 18.3017 19.0309V22.3519C17.225 21.7725 15.865 21.4475 14.7884 21.4475ZM30.2443 19.6668L30.0176 18.621H26.9576V30.9866H30.4993V22.6063C31.3351 21.5181 32.7518 21.7159 33.1909 21.8714V18.621C32.7376 18.4514 31.0801 18.1405 30.2443 19.6668ZM34.0548 18.621H37.6107V30.9866H34.0548V18.621ZM42.229 19.4831C42.7248 19.0308 43.6173 18.3808 45.0057 18.3808C47.4848 18.3808 49.8223 20.6136 49.8365 24.7119C49.8365 29.1918 47.5273 31.2268 44.9915 31.2268C43.7448 31.2268 42.994 30.7039 42.484 30.3365L42.4698 34.3359L38.9281 35.0849V18.6069H42.0448L42.229 19.4831ZM42.4839 27.4535C42.8239 27.821 43.3198 28.1177 44.1556 28.1177C45.4589 28.1177 46.3373 26.7045 46.3373 24.8108C46.3373 22.9595 45.4448 21.5181 44.1556 21.5181C43.3481 21.5181 42.8381 21.8007 42.4698 22.2105L42.4839 27.4535Z" fill="#6461FC"/>
</g>
</svg>
