<svg width="62" height="50" viewBox="0 0 62 50" fill="none" xmlns="http://www.w3.org/2000/svg">
<path id="Vector" d="M58.8092 4.54773C57.5141 4.54773 56.4588 3.70724 56.4588 2.67573C56.4588 1.64421 57.5141 0.803711 58.8092 0.803711C60.1043 0.803711 61.1596 1.64421 61.1596 2.67573C61.1596 3.71361 60.1043 4.54773 58.8092 4.54773ZM61.1596 13.876C61.1596 12.8444 60.1043 12.004 58.8092 12.004C57.5141 12.004 56.4588 12.8444 56.4588 13.876C56.4588 14.9075 57.5141 15.748 58.8092 15.748C60.1043 15.748 61.1596 14.9138 61.1596 13.876ZM61.1596 25.0762C61.1596 24.0447 60.1043 23.2042 58.8092 23.2042C57.5141 23.2042 56.4588 24.0447 56.4588 25.0762C56.4588 26.1077 57.5141 26.9482 58.8092 26.9482C60.1043 26.9546 61.1596 26.1141 61.1596 25.0762ZM61.1596 36.2828C61.1596 35.2513 60.1043 34.4108 58.8092 34.4108C57.5141 34.4108 56.4588 35.2513 56.4588 36.2828C56.4588 37.3143 57.5141 38.1548 58.8092 38.1548C60.1043 38.1548 61.1596 37.3143 61.1596 36.2828ZM61.1596 47.4831C61.1596 46.4515 60.1043 45.611 58.8092 45.611C57.5141 45.611 56.4588 46.4515 56.4588 47.4831C56.4588 48.5146 57.5141 49.3551 58.8092 49.3551C60.1043 49.3551 61.1596 48.5146 61.1596 47.4831ZM47.097 2.67573C47.097 1.64421 46.0417 0.803711 44.7465 0.803711C43.4514 0.803711 42.3961 1.64421 42.3961 2.67573C42.3961 3.70724 43.4514 4.54773 44.7465 4.54773C46.0417 4.54773 47.097 3.71361 47.097 2.67573ZM47.097 13.876C47.097 12.8444 46.0417 12.004 44.7465 12.004C43.4514 12.004 42.3961 12.8444 42.3961 13.876C42.3961 14.9075 43.4514 15.748 44.7465 15.748C46.0417 15.748 47.097 14.9138 47.097 13.876ZM47.097 25.0762C47.097 24.0447 46.0417 23.2042 44.7465 23.2042C43.4514 23.2042 42.3961 24.0447 42.3961 25.0762C42.3961 26.1077 43.4514 26.9482 44.7465 26.9482C46.0417 26.9546 47.097 26.1141 47.097 25.0762ZM47.097 36.2828C47.097 35.2513 46.0417 34.4108 44.7465 34.4108C43.4514 34.4108 42.3961 35.2513 42.3961 36.2828C42.3961 37.3143 43.4514 38.1548 44.7465 38.1548C46.0417 38.1548 47.097 37.3143 47.097 36.2828ZM47.097 47.4831C47.097 46.4515 46.0417 45.611 44.7465 45.611C43.4514 45.611 42.3961 46.4515 42.3961 47.4831C42.3961 48.5146 43.4514 49.3551 44.7465 49.3551C46.0417 49.3551 47.097 48.5146 47.097 47.4831ZM33.0264 2.67573C33.0264 1.64421 31.9711 0.803711 30.6759 0.803711C29.3808 0.803711 28.3255 1.64421 28.3255 2.67573C28.3255 3.70724 29.3808 4.54773 30.6759 4.54773C31.979 4.54773 33.0264 3.71361 33.0264 2.67573ZM33.0264 13.876C33.0264 12.8444 31.9711 12.004 30.6759 12.004C29.3808 12.004 28.3255 12.8444 28.3255 13.876C28.3255 14.9075 29.3808 15.748 30.6759 15.748C31.979 15.748 33.0264 14.9138 33.0264 13.876ZM33.0264 25.0762C33.0264 24.0447 31.9711 23.2042 30.6759 23.2042C29.3808 23.2042 28.3255 24.0447 28.3255 25.0762C28.3255 26.1077 29.3808 26.9482 30.6759 26.9482C31.979 26.9546 33.0264 26.1141 33.0264 25.0762ZM33.0264 36.2828C33.0264 35.2513 31.9711 34.4108 30.6759 34.4108C29.3808 34.4108 28.3255 35.2513 28.3255 36.2828C28.3255 37.3143 29.3808 38.1548 30.6759 38.1548C31.979 38.1548 33.0264 37.3143 33.0264 36.2828ZM33.0264 47.4831C33.0264 46.4515 31.9711 45.611 30.6759 45.611C29.3808 45.611 28.3255 46.4515 28.3255 47.4831C28.3255 48.5146 29.3808 49.3551 30.6759 49.3551C31.979 49.3551 33.0264 48.5146 33.0264 47.4831ZM18.9637 2.67573C18.9637 1.64421 17.9084 0.803711 16.6133 0.803711C15.3181 0.803711 14.2629 1.64421 14.2629 2.67573C14.2629 3.70724 15.3181 4.54773 16.6133 4.54773C17.9164 4.54773 18.9637 3.71361 18.9637 2.67573ZM18.9637 13.876C18.9637 12.8444 17.9084 12.004 16.6133 12.004C15.3181 12.004 14.2629 12.8444 14.2629 13.876C14.2629 14.9075 15.3181 15.748 16.6133 15.748C17.9164 15.748 18.9637 14.9138 18.9637 13.876ZM18.9637 25.0762C18.9637 24.0447 17.9084 23.2042 16.6133 23.2042C15.3181 23.2042 14.2629 24.0447 14.2629 25.0762C14.2629 26.1077 15.3181 26.9482 16.6133 26.9482C17.9164 26.9546 18.9637 26.1141 18.9637 25.0762ZM18.9637 36.2828C18.9637 35.2513 17.9084 34.4108 16.6133 34.4108C15.3181 34.4108 14.2629 35.2513 14.2629 36.2828C14.2629 37.3143 15.3181 38.1548 16.6133 38.1548C17.9164 38.1548 18.9637 37.3143 18.9637 36.2828ZM18.9637 47.4831C18.9637 46.4515 17.9084 45.611 16.6133 45.611C15.3181 45.611 14.2629 46.4515 14.2629 47.4831C14.2629 48.5146 15.3181 49.3551 16.6133 49.3551C17.9164 49.3551 18.9637 48.5146 18.9637 47.4831ZM4.90107 2.67573C4.90107 1.64421 3.84577 0.803711 2.55063 0.803711C1.2555 0.803711 0.200195 1.64421 0.200195 2.67573C0.200195 3.70724 1.2555 4.54773 2.55063 4.54773C3.84577 4.54773 4.90107 3.71361 4.90107 2.67573ZM4.90107 13.876C4.90107 12.8444 3.84577 12.004 2.55063 12.004C1.2555 12.004 0.200195 12.8444 0.200195 13.876C0.200195 14.9075 1.2555 15.748 2.55063 15.748C3.84577 15.748 4.90107 14.9138 4.90107 13.876ZM4.90107 25.0762C4.90107 24.0447 3.84577 23.2042 2.55063 23.2042C1.2555 23.2042 0.200195 24.0447 0.200195 25.0762C0.200195 26.1077 1.2555 26.9482 2.55063 26.9482C3.84577 26.9482 4.90107 26.1141 4.90107 25.0762ZM4.90107 36.2828C4.90107 35.2513 3.84577 34.4108 2.55063 34.4108C1.2555 34.4108 0.200195 35.2513 0.200195 36.2828C0.200195 37.3143 1.2555 38.1548 2.55063 38.1548C3.84577 38.1548 4.90107 37.3143 4.90107 36.2828ZM4.90107 47.4831C4.90107 46.4515 3.84577 45.611 2.55063 45.611C1.2555 45.611 0.200195 46.4515 0.200195 47.4831C0.200195 48.5146 1.2555 49.3551 2.55063 49.3551C3.84577 49.3551 4.90107 48.5146 4.90107 47.4831Z" fill="#0F4C81"/>
</svg>
