<svg width="70" height="49" viewBox="0 0 70 49" fill="none" xmlns="http://www.w3.org/2000/svg">
<g id="credit-card">
<rect id="BASE" y="0.5" width="70" height="48" rx="4" fill="#EBF3FA"/>
<path id="polygon9" d="M29.9482 32.6656H25.9902L28.4658 17.3584H32.4236L29.9482 32.6656Z" fill="#00579F"/>
<path id="path11" d="M44.2947 17.7327C43.514 17.423 42.2758 17.0811 40.7447 17.0811C36.8361 17.0811 34.0837 19.1653 34.0668 22.1452C34.0343 24.3438 36.0374 25.5649 37.5356 26.298C39.0669 27.0471 39.5874 27.536 39.5874 28.2037C39.5718 29.2292 38.35 29.7019 37.2105 29.7019C35.6303 29.7019 34.7836 29.4581 33.4969 28.8876L32.9757 28.6431L32.4219 32.0792C33.3502 32.5021 35.0604 32.8774 36.8361 32.8939C40.989 32.8939 43.6928 30.8418 43.7248 27.6663C43.7406 25.9238 42.6829 24.5886 40.4025 23.4975C39.0182 22.7971 38.1704 22.3249 38.1704 21.6082C38.1866 20.9568 38.8875 20.2895 40.4501 20.2895C41.7368 20.2568 42.6822 20.5661 43.3984 20.8756L43.7564 21.0381L44.2947 17.7327Z" fill="#00579F"/>
<path id="path13" d="M49.5572 27.2428C49.8832 26.3634 51.1374 22.96 51.1374 22.96C51.121 22.9927 51.4627 22.0644 51.6582 21.4945L51.9348 22.8134C51.9348 22.8134 52.6843 26.4775 52.847 27.2428C52.2285 27.2428 50.339 27.2428 49.5572 27.2428ZM54.4428 17.3584H51.3813C50.4372 17.3584 49.72 17.635 49.3126 18.6284L43.4336 32.6654H47.5866C47.5866 32.6654 48.2703 30.7761 48.4172 30.3692C48.8728 30.3692 52.9128 30.3692 53.4989 30.3692C53.6126 30.9066 53.9712 32.6654 53.9712 32.6654H57.6359L54.4428 17.3584Z" fill="#00579F"/>
<path id="path15" d="M22.684 17.3584L18.8078 27.7964L18.3843 25.6795C17.6676 23.2368 15.4202 20.5829 12.9121 19.2632L16.4625 32.6494H20.648L26.8692 17.3584H22.684Z" fill="#00579F"/>
<path id="path17" d="M15.2085 17.3584H8.84054L8.77539 17.6677C13.7428 18.9379 17.0326 21.9999 18.3843 25.6801L16.9999 18.6451C16.772 17.6675 16.0717 17.3906 15.2085 17.3584Z" fill="#FAA61A"/>
</g>
</svg>
